<svg xmlns="http://www.w3.org/2000/svg" xmlns:xlink="http://www.w3.org/1999/xlink" width="1920" zoomAndPan="magnify" viewBox="0 0 1440 809.999993" height="1080" preserveAspectRatio="xMidYMid meet" version="1.0"><path fill="#bbc8f2" d="M 784.800781 502.199219 C 802.699219 502.199219 817.039062 516.699219 817.039062 534.601562 C 817.039062 552.5 802.699219 567 784.800781 567 C 766.898438 567 752.398438 552.5 752.398438 534.601562 C 752.398438 516.699219 766.898438 502.199219 784.800781 502.199219 Z M 882 243 L 882 275.398438 L 849.601562 275.398438 L 791.359375 398.277344 L 813.230469 437.96875 C 815.742188 442.664062 817.199219 447.929688 817.199219 453.601562 C 817.199219 471.5 802.699219 486 784.800781 486 L 590.398438 486 L 590.398438 453.601562 L 777.914062 453.601562 C 780.183594 453.601562 781.964844 451.816406 781.964844 449.550781 C 781.964844 448.820312 781.804688 448.171875 781.480469 447.605469 L 766.980469 421.199219 L 646.289062 421.199219 C 634.140625 421.199219 623.527344 414.476562 617.941406 404.515625 L 560.023438 299.375 C 558.730469 297.109375 558 294.433594 558 291.601562 C 558 282.609375 565.289062 275.398438 574.199219 275.398438 L 813.71875 275.398438 L 829.105469 243 Z M 622.800781 502.199219 C 640.699219 502.199219 655.039062 516.699219 655.039062 534.601562 C 655.039062 552.5 640.699219 567 622.800781 567 C 604.898438 567 590.398438 552.5 590.398438 534.601562 C 590.398438 516.699219 604.898438 502.199219 622.800781 502.199219 Z M 622.800781 502.199219 " fill-opacity="1" fill-rule="nonzero"/></svg>